<svg xmlns="http://www.w3.org/2000/svg" width="26" height="25" viewBox="0 0 26 25" fill="none">
  <path fill-rule="evenodd" clip-rule="evenodd" d="M22.4801 8.33718C22.421 8.33346 22.3567 8.33348 22.2902 8.3335L22.2735 8.33351H19.6605C17.5066 8.33351 15.6637 10.0289 15.6637 12.2397C15.6637 14.4506 17.5066 16.146 19.6605 16.146H22.2735H22.2902C22.3567 16.146 22.421 16.1461 22.4801 16.1424C23.3549 16.087 24.1286 15.4025 24.1937 14.4462C24.198 14.3835 24.1979 14.3159 24.1979 14.2533V14.2363V10.2432V10.2262C24.1979 10.1636 24.198 10.096 24.1937 10.0333C24.1286 9.07705 23.3549 8.39243 22.4801 8.33718ZM19.4288 13.2814C19.9833 13.2814 20.4328 12.8151 20.4328 12.2397C20.4328 11.6644 19.9833 11.1981 19.4288 11.1981C18.8743 11.1981 18.4247 11.6644 18.4247 12.2397C18.4247 12.8151 18.8743 13.2814 19.4288 13.2814Z" fill="url(#paint0_linear_190_3099)"/>
  <path fill-rule="evenodd" clip-rule="evenodd" d="M22.2895 17.7083C22.4448 17.7043 22.5624 17.8481 22.5202 17.9977C22.3112 18.7398 21.9792 19.3724 21.4467 19.905C20.6671 20.6845 19.6786 21.0304 18.4573 21.1947C17.2707 21.3542 15.7544 21.3542 13.84 21.3542H11.6392C9.72486 21.3542 8.20857 21.3542 7.0219 21.1947C5.80062 21.0304 4.81213 20.6845 4.03258 19.905C3.25304 19.1254 2.90708 18.1369 2.7429 16.9156C2.58334 15.729 2.58335 14.2127 2.58337 12.2983V12.1808C2.58335 10.2665 2.58334 8.7502 2.7429 7.56352C2.90708 6.34225 3.25304 5.35376 4.03258 4.57421C4.81213 3.79467 5.80062 3.44871 7.0219 3.28452C8.20857 3.12497 9.72485 3.12498 11.6392 3.125H13.84C15.7544 3.12498 17.2707 3.12497 18.4573 3.28452C19.6786 3.44871 20.6671 3.79467 21.4467 4.57421C21.9792 5.10679 22.3111 5.73931 22.5202 6.48144C22.5624 6.63099 22.4448 6.77486 22.2895 6.77083L19.6605 6.77084C16.7057 6.77084 14.1012 9.10511 14.1012 12.2396C14.1012 15.3741 16.7057 17.7083 19.6605 17.7083H22.2895ZM6.48962 7.29167C6.05816 7.29167 5.70837 7.64145 5.70837 8.07292C5.70837 8.50439 6.05816 8.85417 6.48962 8.85417H10.6563C11.0877 8.85417 11.4375 8.50439 11.4375 8.07292C11.4375 7.64145 11.0877 7.29167 10.6563 7.29167H6.48962Z" fill="url(#paint1_linear_190_3099)"/>
  <defs>
    <linearGradient id="paint0_linear_190_3099" x1="22.5403" y1="19.6426" x2="19.8615" y2="8.73681" gradientUnits="userSpaceOnUse">
      <stop stop-color="#2A5FE8"/>
      <stop offset="1" stop-color="#9945FF"/>
    </linearGradient>
    <linearGradient id="paint1_linear_190_3099" x1="18.655" y1="29.5129" x2="12.4133" y2="4.06136" gradientUnits="userSpaceOnUse">
      <stop stop-color="#2A5FE8"/>
      <stop offset="1" stop-color="#9945FF"/>
    </linearGradient>
  </defs>
</svg>