<svg xmlns="http://www.w3.org/2000/svg" width="26" height="25" viewBox="0 0 26 25" fill="none">
  <path d="M21.8542 5.72949H10.3958C6.52783 5.72949 3.625 8.5264 3.625 12.5003" stroke="url(#paint0_linear_190_3174)" stroke-width="2" stroke-linecap="round" stroke-linejoin="round"/>
  <path d="M4.14581 19.2708H15.6041C19.4722 19.2708 22.375 16.474 22.375 12.5" stroke="url(#paint1_linear_190_3174)" stroke-width="2" stroke-linecap="round" stroke-linejoin="round"/>
  <path d="M19.7708 3.125C19.7708 3.125 22.375 5.04294 22.375 5.72919C22.375 6.41544 19.7708 8.33333 19.7708 8.33333" stroke="url(#paint2_linear_190_3174)" stroke-width="2" stroke-linecap="round" stroke-linejoin="round"/>
  <path d="M6.22915 16.667C6.22915 16.667 3.62501 18.5849 3.625 19.2712C3.62499 19.9574 6.22917 21.8753 6.22917 21.8753" stroke="url(#paint3_linear_190_3174)" stroke-width="2" stroke-linecap="round" stroke-linejoin="round"/>
  <defs>
    <linearGradient id="paint0_linear_190_3174" x1="18.3136" y1="15.5307" x2="17.3246" y2="5.60731" gradientUnits="userSpaceOnUse">
      <stop stop-color="#2A5FE8"/>
      <stop offset="1" stop-color="#9945FF"/>
    </linearGradient>
    <linearGradient id="paint1_linear_190_3174" x1="18.8345" y1="22.3012" x2="17.8454" y2="12.3778" gradientUnits="userSpaceOnUse">
      <stop stop-color="#2A5FE8"/>
      <stop offset="1" stop-color="#9945FF"/>
    </linearGradient>
    <linearGradient id="paint2_linear_190_3174" x1="21.8692" y1="10.6644" x2="18.6571" y2="4.67899" gradientUnits="userSpaceOnUse">
      <stop stop-color="#2A5FE8"/>
      <stop offset="1" stop-color="#9945FF"/>
    </linearGradient>
    <linearGradient id="paint3_linear_190_3174" x1="5.72338" y1="24.2064" x2="2.51127" y2="18.221" gradientUnits="userSpaceOnUse">
      <stop stop-color="#2A5FE8"/>
      <stop offset="1" stop-color="#9945FF"/>
    </linearGradient>
  </defs>
</svg>