<svg xmlns="http://www.w3.org/2000/svg" width="24" height="25" viewBox="0 0 24 25" fill="none">
  <path d="M20.4999 14.5V10.5C20.4999 6.72876 20.4999 4.84315 19.3284 3.67157C18.1568 2.5 16.2712 2.5 12.4999 2.5H11.5C7.72883 2.5 5.84323 2.5 4.67166 3.67156C3.50008 4.84312 3.50007 6.72872 3.50004 10.4999L3.5 14.4999C3.49997 18.2712 3.49995 20.1568 4.67153 21.3284C5.8431 22.5 7.72873 22.5 11.5 22.5H12.4999C16.2712 22.5 18.1568 22.5 19.3284 21.3284C20.4999 20.1569 20.4999 18.2712 20.4999 14.5Z" fill="url(#paint0_linear_190_3231)" stroke="url(#paint1_linear_190_3231)" stroke-width="1.5" stroke-linecap="round" stroke-linejoin="round"/>
  <path fill-rule="evenodd" clip-rule="evenodd" d="M7.25 7.5C7.25 7.08579 7.58579 6.75 8 6.75H16C16.4142 6.75 16.75 7.08579 16.75 7.5C16.75 7.91421 16.4142 8.25 16 8.25H8C7.58579 8.25 7.25 7.91421 7.25 7.5ZM7.25 12.5C7.25 12.0858 7.58579 11.75 8 11.75H16C16.4142 11.75 16.75 12.0858 16.75 12.5C16.75 12.9142 16.4142 13.25 16 13.25H8C7.58579 13.25 7.25 12.9142 7.25 12.5ZM7.25 17.5C7.25 17.0858 7.58579 16.75 8 16.75H12C12.4142 16.75 12.75 17.0858 12.75 17.5C12.75 17.9142 12.4142 18.25 12 18.25H8C7.58579 18.25 7.25 17.9142 7.25 17.5Z" fill="black"/>
  <defs>
    <linearGradient id="paint0_linear_190_3231" x1="17.1981" y1="31.4513" x2="8.69978" y2="4.5307" gradientUnits="userSpaceOnUse">
      <stop stop-color="#2A5FE8"/>
      <stop offset="1" stop-color="#9945FF"/>
    </linearGradient>
    <linearGradient id="paint1_linear_190_3231" x1="17.1981" y1="31.4513" x2="8.69978" y2="4.5307" gradientUnits="userSpaceOnUse">
      <stop stop-color="#2A5FE8"/>
      <stop offset="1" stop-color="#9945FF"/>
    </linearGradient>
  </defs>
</svg>