<svg xmlns="http://www.w3.org/2000/svg" width="26" height="25" viewBox="0 0 26 25" fill="none">
  <path d="M20.0303 10.1138V9.37985C20.0303 5.34991 16.8828 2.08301 13 2.08301C9.11725 2.08301 5.96966 5.34991 5.96966 9.37985V10.1138C5.96966 10.9946 5.71845 11.8557 5.24771 12.5886L4.09412 14.3846C3.04044 16.025 3.84484 18.2548 5.67746 18.7735C10.4716 20.1306 15.5284 20.1306 20.3225 18.7735C22.1552 18.2548 22.9596 16.025 21.9059 14.3846L20.7523 12.5886C20.2815 11.8557 20.0303 10.9946 20.0303 10.1138Z" stroke="#474747" stroke-width="1.37755"/>
  <path d="M8.3125 19.792C8.99482 21.6126 10.8359 22.917 13 22.917C15.1641 22.917 17.0052 21.6126 17.6875 19.792" stroke="#474747" stroke-width="1.37755" stroke-linecap="round"/>
</svg>