<svg xmlns="http://www.w3.org/2000/svg" width="35" height="35" viewBox="0 0 35 35" fill="none">
  <path d="M4.375 8.75C4.375 6.68761 4.375 5.65641 5.0157 5.0157C5.65641 4.375 6.68761 4.375 8.75 4.375C10.8124 4.375 11.8436 4.375 12.4843 5.0157C13.125 5.65641 13.125 6.68761 13.125 8.75C13.125 10.8124 13.125 11.8436 12.4843 12.4843C11.8436 13.125 10.8124 13.125 8.75 13.125C6.68761 13.125 5.65641 13.125 5.0157 12.4843C4.375 11.8436 4.375 10.8124 4.375 8.75Z" stroke="#B8B8B8" stroke-width="2"/>
  <path d="M4.375 26.25C4.375 24.1876 4.375 23.1564 5.0157 22.5156C5.65641 21.875 6.68761 21.875 8.75 21.875C10.8124 21.875 11.8436 21.875 12.4843 22.5156C13.125 23.1564 13.125 24.1876 13.125 26.25C13.125 28.3124 13.125 29.3436 12.4843 29.9844C11.8436 30.625 10.8124 30.625 8.75 30.625C6.68761 30.625 5.65641 30.625 5.0157 29.9844C4.375 29.3436 4.375 28.3124 4.375 26.25Z" stroke="#B8B8B8" stroke-width="2"/>
  <path d="M4.375 17.5H13.125" stroke="#B8B8B8" stroke-width="2" stroke-linecap="round" stroke-linejoin="round"/>
  <path d="M17.5 4.375V11.6667" stroke="#B8B8B8" stroke-width="2" stroke-linecap="round" stroke-linejoin="round"/>
  <path d="M21.875 8.75C21.875 6.68761 21.875 5.65641 22.5156 5.0157C23.1564 4.375 24.1876 4.375 26.25 4.375C28.3124 4.375 29.3436 4.375 29.9844 5.0157C30.625 5.65641 30.625 6.68761 30.625 8.75C30.625 10.8124 30.625 11.8436 29.9844 12.4843C29.3436 13.125 28.3124 13.125 26.25 13.125C24.1876 13.125 23.1564 13.125 22.5156 12.4843C21.875 11.8436 21.875 10.8124 21.875 8.75Z" stroke="#B8B8B8" stroke-width="2"/>
  <path d="M30.625 17.5H21.875C19.8126 17.5 18.7814 17.5 18.1406 18.1406C17.5 18.7814 17.5 19.8126 17.5 21.875M17.5 25.9134V29.952M21.875 21.875V24.0625C21.875 26.1718 23.0179 26.25 24.7917 26.25C25.5971 26.25 26.25 26.9029 26.25 27.7083M23.3333 30.625H21.875M26.25 21.875C28.3124 21.875 29.3436 21.875 29.9844 22.5167C30.625 23.1582 30.625 24.191 30.625 26.2563C30.625 28.3217 30.625 29.3544 29.9844 29.996C29.5167 30.4643 28.841 30.5909 27.7083 30.625" stroke="#B8B8B8" stroke-width="2" stroke-linecap="round"/>
</svg>