<svg xmlns="http://www.w3.org/2000/svg" width="35" height="35" viewBox="0 0 35 35" fill="none">
  <path d="M27.1774 22.8526L29.6805 15.3432C31.8672 8.78302 32.9606 5.50293 31.2291 3.7715C29.4977 2.04008 26.2177 3.13343 19.6575 5.32015L12.1481 7.82329C6.85337 9.58818 4.20605 10.4706 3.45375 11.7647C2.73807 12.9957 2.73807 14.5161 3.45375 15.7471C4.20605 17.0412 6.85337 17.9237 12.1481 19.6886C12.9982 19.9719 13.4233 20.1137 13.7786 20.3515C14.1229 20.5819 14.4187 20.8778 14.6491 21.2221C14.887 21.5774 15.0287 22.0025 15.3121 22.8526C17.077 28.1473 17.9594 30.7946 19.2535 31.5468C20.4845 32.2626 22.005 32.2626 23.236 31.5468C24.5301 30.7946 25.4125 28.1473 27.1774 22.8526Z" stroke="#B8B8B8" stroke-width="2"/>
  <path d="M25.943 9.05762L19.8027 15.1303" stroke="#B8B8B8" stroke-width="2" stroke-linecap="round"/>
</svg>