<svg xmlns="http://www.w3.org/2000/svg" width="35" height="35" viewBox="0 0 35 35" fill="none">
  <path d="M14.584 10.2477C15.2884 6.08629 18.9101 2.91699 23.272 2.91699C28.1388 2.91699 32.084 6.86225 32.084 11.729C32.084 16.0908 28.9147 19.7126 24.7532 20.417" stroke="#B8B8B8" stroke-width="2" stroke-linecap="round" stroke-linejoin="round"/>
  <path d="M11.667 32.083C16.4995 32.083 20.417 28.1655 20.417 23.333C20.417 18.5005 16.4995 14.583 11.667 14.583C6.8345 14.583 2.91699 18.5005 2.91699 23.333C2.91699 28.1655 6.8345 32.083 11.667 32.083Z" stroke="#B8B8B8" stroke-width="2" stroke-linecap="round" stroke-linejoin="round"/>
  <path d="M2.91699 13.125C2.91699 8.2875 6.8295 4.375 11.667 4.375L10.417 6.87501" stroke="#B8B8B8" stroke-width="2" stroke-linecap="round" stroke-linejoin="round"/>
  <path d="M32.084 21.875C32.084 26.7124 28.1714 30.625 23.334 30.625L24.5839 28.125" stroke="#B8B8B8" stroke-width="2" stroke-linecap="round" stroke-linejoin="round"/>
</svg>