<svg xmlns="http://www.w3.org/2000/svg" width="26" height="25" viewBox="0 0 26 25" fill="none">
  <path d="M21.8541 14.5835V10.4168C21.8541 6.48845 21.8541 4.52428 20.6338 3.30388C19.4134 2.0835 17.4492 2.0835 13.5208 2.0835H12.4792C8.55091 2.0835 6.58674 2.0835 5.36635 3.30387C4.14596 4.52425 4.14595 6.48841 4.14592 10.4168L4.14587 14.5834C4.14584 18.5118 4.14582 20.476 5.36622 21.6964C6.5866 22.9168 8.5508 22.9168 12.4792 22.9168H13.5208C17.4492 22.9168 19.4134 22.9168 20.6338 21.6964C21.8541 20.4761 21.8541 18.5118 21.8541 14.5835Z" stroke="#474747" stroke-width="1.5" stroke-linecap="round" stroke-linejoin="round"/>
  <path d="M8.83337 7.2915H17.1667M8.83337 12.4998H17.1667M8.83337 17.7082H13" stroke="#474747" stroke-width="1.5" stroke-linecap="round" stroke-linejoin="round"/>
</svg>